<?xml version="1.0" encoding="UTF-8"?>
<svg width="283.63" height="270.62" enable-background="new 0 0 283.629 270.618" viewBox="0 0 283.629 270.618" xmlns="http://www.w3.org/2000/svg">
 <g fill-rule="evenodd">
  <path d="m48.489 268.72h-9.963l-33.401-16.8-1.898-9.963c0-11.957 5.124-23.438 0-35.11v-78.569l1.898-11.672v-21.921l-5.125-8.254c1.898-16.796 8.35-30.271 6.832-45.358v-21.636l9.964-13.38 18.314-3.7h33.401l28.657-1.234h40.234c41.752 0 81.986-5.124 123.83 6.358l18.313 13.665v15.087c5.125 63.388 5.125 125.35 1.898 187.41l1.519 16.796-16.606 25.051c-10.057 3.227-18.693 3.227-28.751 3.227-35.015 1.898-70.125 0-103.43-4.935l-11.861 1.708c-23.438 6.643-45.073 3.227-68.701 5.125l-5.12-1.92z"/>
  <path d="m63.577 255.53-19.927-5.124-21.541-9.964-5.124-8.54c0-27.045 8.35-50.199 1.518-75.439 1.897-13.189 1.897-24.957-1.518-36.723 10.248 21.826 18.314 46.877 33.401 73.731l51.906-13.665v8.54c3.226 8.256 13.189 6.548 18.314 15.088l19.926 1.423 13.475-3.131-1.708 11.861 6.832 13.19 14.043 16.606 19.357-1.423 15.089-16.891-1.898-18.219c-3.227-6.832-11.482-11.956-16.605-15.087l-19.928-1.994c0-9.963 1.424-18.218 1.424-26.57l-1.424-8.444 25.051-8.351-3.605 27.043 3.605 4.935 1.52 1.423c9.963 9.963 18.693 6.832 28.655 8.54l3.229-1.708 15.086-13.189 1.71-13.665-1.71-6.547-1.707-1.708-1.518-3.131c-6.738-6.832-11.861-8.73-18.694-10.249v-4.744l15.088-3.606 1.708-1.518 3.416-1.709c0-25.051-20.212-52.094-23.438-77.145l-15.088-33.403 51.906 1.424 11.955 6.833c15.088 66.993 0 132.18 6.358 199.37l-13.19 26.76-11.956 3.226c-31.884 3.131-60.16 0-90.335 1.898h-13.19c-24.957 2.941-50.103-1.898-75.533 0h-4.94z" fill="#3b823b"/>
  <path d="m182.48,236.74-9.109-1.614-10.818-11.576v-1.898l-3.226-14.233 11.481-8.92c9.774-3.605 16.606,0 26.569,6.358l3.416,17.84-12.335,13.665-5.98.38z" fill="#e6e6e6"/>
  <path d="m100.4 233.52-6.357-9.963 13.189 3.131-3.131 8.54-3.7-1.71z"/>
  <path d="m31.883 226.68-1.613-9.964 9.963 4.935-5.124 5.03h-3.226z"/>
  <path d="m117.38 223.55h-5.124l-18.314-13.57 16.606 4.935 18.504 1.898v8.255h-8.445l-3.22-1.53z"/>
  <path d="m241.02 223.55-1.518-5.03 4.935-6.832v11.861h-3.42z"/>
  <path d="m232.77 208.56 13.379-18.788v-1.423l5.125 6.548c-1.709 6.832-8.541 11.956-13.57 13.663h-4.94z"/>
  <path d="m132.28 198.5-8.161-1.992-11.861-8.255-1.708-4.839-1.518-15.184 13.189-16.796 10.059-3.131h13.189l11.672 9.964 1.993 20.021-15.183 18.219-8.35 3.416-3.32-1.43z" fill="#e6e6e6"/>
  <path d="m55.322 186.54-35.11-91.95-3.416-15.088h3.416l8.35 1.709 4.84 18.218 18.693 40.043 1.519 8.73 14.897 31.504-10.058 6.833h-3.131z" fill="#fff"/>
  <path d="m210.85 181.7-8.255-3.32-1.709-10.059-1.518-6.737 10.058-15.088 9.964-3.225 8.257 1.518 10.057 13.569-8.351 21.446-14.802 3.606-3.71-1.71z" fill="#e6e6e6"/>
  <path d="m73.54 179.71-18.314-43.366-5.124-26.664-16.795-36.721 157.23-55.511c23.817 35.204 27.044 67.184 45.263 102.29l-28.277 9.964-8.255 1.708-31.884 11.766-1.898 1.519-10.058 1.613c-14.898-8.255-28.088-8.255-43.176 3.227l-11.94 21.92-23.153 8.255h-3.607z" fill="#99d594"/>
  <path d="m77.146 144.7-1.897-6.642 6.832-1.709-10.059-40.048-5.029 10.058-1.708-11.766 5.029-9.963 6.832 3.416 15.087 43.366h13.19l-25.052 14.993-3.222-1.7z" fill="#3d564c"/>
  <path d="m122.31 126.57-15.088-11.861c-4.934-11.576-1.708-20.021-3.226-31.503l8.255-15.088 21.92 9.963c6.453 11.483 8.161 21.542 8.161 33.403l-6.643 13.189-10.248 3.606-3.12-1.71z" fill="#3d564c"/>
  <path d="m125.45 119.74c-11.481-6.547-9.963-21.635-11.481-33.306v-10.06l15.087 8.35c3.227 8.541 5.124 14.899 5.124 23.629l-5.124 11.386h-3.61z" fill="#99d594"/>
  <path d="m163.97 111.48-9.964-6.833-4.934-9.963 1.519-41.847h13.38c20.212 11.671 21.729 30.365 21.729 45.263l-8.255 13.38-10.059 1.708-3.43-1.71z" fill="#3d564c"/>
  <path d="m167.39 101.43-8.255-8.256c-3.701-8.54-5.125-15.088-5.125-23.628 1.424-8.255 6.548-11.861 9.964-6.832l8.351 8.54 3.416 13.38 1.708 6.642-6.832 11.861-3.24-1.71z" fill="#99d594"/>
  <path d="m205.72 101.43 1.898-8.256 8.064 3.131-6.356 6.833-3.6-1.71z" fill="#3d564c"/>
  <path d="m246.05 98.01 5.125-9.963 6.643 3.227-8.351 6.736h-3.42z"/>
  <path d="m18.314 66.127 1.993-11.672-3.417-18.313 11.671-16.795c28.467-11.862 55.511 0 83.789-6.738l51.715 1.614-108.74 40.232-21.92 6.738-13.095 6.832-1.991-1.898z" fill="#3b823b"/>
  <path d="m194.34 64.514-1.708-9.963c8.255 3.131 8.255 6.738 6.737 9.963h-5.03z" fill="#3d564c"/>
  <path d="m225.94 57.586v-9.963c10.06 0 8.541 6.736 4.935 9.963h-4.94z"/>
  <path d="m48.489 42.499v-8.255l6.833-3.227h1.708l8.256 1.519-6.738 9.963h-10.059z"/>
  <path d="m126.11,174.68-6.927-13.38 12.905-7.591 5.313,6.832-3.511,2.278-4.27-1.898-4.46,4.365 4.46,7.116 7.497-5.599 5.693,1.328 6.738,10.628s-5.03,7.307-6.642,7.875c-1.329.664-7.972,4.081-8.541,2.467-.664-1.518-3.131-5.883-3.131-5.883l3.036-1.139s3.985,1.139 5.504.475c1.518-.475 2.752-3.7 2.942-5.599 .19-1.803-3.037-5.788-3.037-5.883 0,.095-6.263,4.271-6.263,4.271l-3.985,3.32-3.31-3.99z" fill="#5c697f"/>
  <path d="m210.37,153.43 6.833-5.03h3.89l.285,23.532s5.504.95 5.504.855v4.175h-13.28v-4.65l4.271-.854s-1.708-16.606-1.708-16.7c0,.094-3.132.948-3.132.948l-2.66-2.28z" fill="#5c697f"/>
  <path d="m182.86,226.59-4.461-6.737c-.474-5.029 1.804-7.782 2.657-12.336l5.029-4.459 7.307,7.022c1.044,5.219.665,9.299-.854,13.854l-4.175,3.986-4.46-.189-1.06-1.13z" fill="#5c697f"/>
  <path d="m184.94,224.5c-3.7-4.175-1.328-9.679-.475-14.329l1.233-3.795 4.84,5.408c.285,3.702.19,6.358-.854,9.679l-3.321,3.606-1.42-.58z" fill="#e6e6e6"/>
  <path d="m164.64,207.7 5.409-4.08h3.037l.285,18.693 4.364.664v3.322h-10.533v-3.606l3.321-.759-1.233-13.189-2.563.759-2.1-1.79z" fill="#5c697f"/>
 </g>
</svg>
